HIERARCHY
ROOT Hips
{
	OFFSET	0.00	0.00	0.00
	CHANNELS 6 Xposition Yposition Zposition Zrotation Xrotation Yrotation
	JOINT LeftUpLeg
	{
		OFFSET	 0.126116	-0.014019	-0.065224
		CHANNELS 3 Zrotation Xrotation Yrotation
		JOINT LeftLeg
		{
			OFFSET	 0.000000	 0.000000	 0.569914
			CHANNELS 3 Zrotation Xrotation Yrotation
			JOINT LeftFoot
			{
				OFFSET	 0.000000	 0.000000	 0.544423
				CHANNELS 3 Zrotation Xrotation Yrotation
				JOINT LeftToeBase
				{
					OFFSET	 0.000000	 0.000000	 0.207117
					CHANNELS 3 Zrotation Xrotation Yrotation
					End Site
					{
						OFFSET	 0.000000	 0.000000	 0.207117
					}
				}
			}
		}
	}
	JOINT RightUpLeg
	{
		OFFSET	-0.124023	-0.008373	-0.065224
		CHANNELS 3 Zrotation Xrotation Yrotation
		JOINT RightLeg
		{
			OFFSET	 0.000000	 0.000000	 0.570047
			CHANNELS 3 Zrotation Xrotation Yrotation
			JOINT RightFoot
			{
				OFFSET	 0.000000	 0.000000	 0.544354
				CHANNELS 3 Zrotation Xrotation Yrotation
				JOINT RightToeBase
				{
					OFFSET	 0.000000	 0.000000	 0.207540
					CHANNELS 3 Zrotation Xrotation Yrotation
					End Site
					{
						OFFSET	 0.000000	 0.000000	 0.207540
					}
				}
			}
		}
	}
	JOINT Spine
	{
		OFFSET	 0.000184	-0.007763	 0.117403
		CHANNELS 3 Zrotation Xrotation Yrotation
		JOINT Spine1
		{
			OFFSET	 0.000000	 0.000000	 0.137269
			CHANNELS 3 Zrotation Xrotation Yrotation
			JOINT Spine2
			{
				OFFSET	 0.000000	 0.000000	 0.156879
				CHANNELS 3 Zrotation Xrotation Yrotation
				JOINT LeftShoulder
				{
					OFFSET	 0.080501	-0.002496	 0.160144
					CHANNELS 3 Zrotation Xrotation Yrotation
					JOINT LeftArm
					{
						OFFSET	 0.000000	 0.000000	 0.164363
						CHANNELS 3 Zrotation Xrotation Yrotation
						JOINT LeftForeArm
						{
							OFFSET	 0.000000	 0.000000	 0.364576
							CHANNELS 3 Zrotation Xrotation Yrotation
							JOINT LeftHand
							{
								OFFSET	 0.000000	 0.000000	 0.360812
								CHANNELS 3 Zrotation Xrotation Yrotation
								JOINT LeftHandIndex1
								{
									OFFSET	 0.000000	 0.000000	 0.086006
									CHANNELS 3 Zrotation Xrotation Yrotation
									JOINT LeftHandIndex2
									{
										OFFSET	 0.000000	 0.000000	 0.047237
										CHANNELS 3 Zrotation Xrotation Yrotation
										JOINT LeftHandIndex3
										{
											OFFSET	-0.004284	-0.000551	 0.038165
											CHANNELS 3 Zrotation Xrotation Yrotation
											End Site
											{
												OFFSET	-0.004284	-0.000551	 0.038165
											}
										}
									}
								}
							}
						}
					}
				}
				JOINT Neck
				{
					OFFSET	 0.000000	 0.000000	 0.176489
					CHANNELS 3 Zrotation Xrotation Yrotation
					JOINT Head
					{
						OFFSET	 0.000000	-0.001747	 0.077940
						CHANNELS 3 Zrotation Xrotation Yrotation
						End Site
						{
							OFFSET	 0.000000	-0.001747	 0.077940
						}
					}
				}
				JOINT RightShoulder
				{
					OFFSET	-0.080363	 0.000306	 0.159706
					CHANNELS 3 Zrotation Xrotation Yrotation
					JOINT RightArm
					{
						OFFSET	 0.000000	 0.000000	 0.164196
						CHANNELS 3 Zrotation Xrotation Yrotation
						JOINT RightForeArm
						{
							OFFSET	 0.000000	 0.000000	 0.365611
							CHANNELS 3 Zrotation Xrotation Yrotation
							JOINT RightHand
							{
								OFFSET	 0.000000	 0.000000	 0.360648
								CHANNELS 3 Zrotation Xrotation Yrotation
								JOINT RightHandIndex1
								{
									OFFSET	 0.000000	 0.000000	 0.069977
									CHANNELS 3 Zrotation Xrotation Yrotation
									JOINT RightHandIndex2
									{
										OFFSET	 0.000000	 0.000000	 0.052305
										CHANNELS 3 Zrotation Xrotation Yrotation
										JOINT RightHandIndex3
										{
											OFFSET	 0.009002	-0.000782	 0.042196
											CHANNELS 3 Zrotation Xrotation Yrotation
											End Site
											{
												OFFSET	 0.009002	-0.000782	 0.042196
											}
										}
									}
								}
							}
						}
					}
				}
			}
		}
	}
}
MOTION
Frames:    4
Frame Time: 0.03333334
-0.449597	-0.033134	 1.272658	 179.873600	-1.667327	 1.103155	 11.287210	-0.843558	 175.468000	 0.370243	-12.045500	-0.039900	-29.478930	 69.377890	 14.223770	-2.385833	 28.452760	 0.000004	 6.560595	 0.733918	-179.229800	-2.210139	-9.970672	-0.647199	 33.662520	 68.118040	-16.017720	 2.384659	 28.388700	-0.000001	-3.778071	 7.601130	-1.038693	-0.899846	-4.952557	-3.529695	 4.419590	 6.350926	 5.067761	-91.776230	 78.527380	-180.000000	-21.935440	-8.892865	-7.146274	 3.887067	-2.260859	-20.994440	-2.772447	-24.855460	-3.636792	-4.130319	 21.525730	 0.991547	-5.167930	 0.731704	 3.519349	-1.378229	 35.397820	-2.634230	-1.157459	-1.901468	 0.547181	-10.438410	-16.706300	-5.619473	 89.782050	 78.203830	-180.000000	 2.510301	-11.668280	 4.326545	-13.857930	-2.632409	 18.535790	 15.492570	 18.342230	 56.751840	 5.716227	 19.173190	-3.685159	 5.027444	 0.246877	-9.377972	-2.350882	 35.473990	 5.254307
-0.450679	-0.033237	 1.272971	 179.938800	-3.689434	 1.834288	 25.982920	-1.175197	 172.730700	-6.456874	-13.317280	-1.624323	-9.393373	 70.298600	-0.532012	-2.385833	 28.452760	 0.000004	 8.632939	 2.846968	 179.670300	 1.831522	-9.856271	 0.052872	 19.003260	 67.807440	-4.515355	 2.384659	 28.388700	-0.000001	-2.863206	 9.243249	-2.681252	-0.612790	 0.084598	-3.391403	 3.655006	-1.645672	 6.822689	-91.776210	 78.527380	-180.000000	-48.722850	 1.525099	-5.659712	 1.481456	-1.925139	-29.063460	-0.609593	-29.253430	-1.909792	-4.130319	 21.525730	 0.991547	-5.167930	 0.731704	 3.519349	-1.378229	 35.397820	-2.634230	-2.488928	 0.190654	 1.357035	-12.623510	-25.437130	-11.819520	 89.782170	 78.203850	 179.999900	 13.260660	-7.566569	 1.004869	-15.994420	-5.589081	 29.117140	 13.832750	 48.153410	 92.896000	 5.716227	 19.173190	-3.685159	 5.027444	 0.246877	-9.377972	-2.350882	 35.473990	 5.254307
-0.450975	-0.033415	 1.272892	-179.932400	-3.971678	 2.261855	 28.536310	-2.439314	 171.940600	-7.841189	-15.424190	-2.249804	-7.206444	 71.027850	-1.566866	-2.385833	 28.452760	 0.000004	 8.462861	 2.381466	 179.409000	 2.579010	-11.338270	 0.207708	 15.885250	 68.135810	-1.939313	 2.384659	 28.388700	-0.000001	-2.930635	 9.456732	-3.084845	-0.637649	 1.095611	-3.950713	 3.501272	-3.163682	 7.466659	-91.776180	 78.527360	-180.000000	-54.622830	 5.382658	-0.582774	 0.584254	-2.087039	-39.175990	-0.851698	-28.785040	-2.102815	-4.130319	 21.525730	 0.991547	-5.167930	 0.731704	 3.519349	-1.378229	 35.397820	-2.634230	-2.799549	 0.672319	 1.695548	-13.376470	-27.150170	-13.492930	 89.782100	 78.203830	 180.000000	 17.024990	-6.175083	-3.067517	-15.090720	-7.648763	 40.043430	 16.227160	 53.709620	 94.205390	 5.716227	 19.173190	-3.685159	 5.027444	 0.246877	-9.377972	-2.350882	 35.473990	 5.254307
-0.451411	-0.033810	 1.272357	-179.756200	-4.230234	 2.830225	 31.163720	-4.631701	 170.990100	-9.529584	-19.264240	-3.360272	-5.674248	 72.579520	-1.769233	-2.385833	 28.452760	 0.000004	 8.102220	 1.010088	 179.294900	 3.432964	-14.639860	 0.482992	 12.999500	 69.173390	 0.309918	 2.384659	 28.388700	-0.000001	-3.264104	 9.639978	-3.562652	-0.782939	 2.336867	-4.780837	 3.364115	-4.905344	 8.296035	-91.776180	 78.527420	-180.000000	-60.375800	 11.644490	 8.153769	-0.581042	-2.030566	-55.570470	-1.593858	-27.930050	-2.408323	-4.130319	 21.525730	 0.991547	-5.167930	 0.731704	 3.519349	-1.378229	 35.397820	-2.634230	-3.166502	 1.232120	 2.134276	-14.359310	-29.050790	-15.556300	 89.782120	 78.203890	 180.000000	 22.120760	-3.204699	-9.240980	-12.491690	-10.389130	 58.206010	 25.466030	 58.759850	 87.244490	 5.716227	 19.173190	-3.685159	 5.027444	 0.246877	-9.377972	-2.350882	 35.473990	 5.254307
